<svg width="19" height="20" viewBox="0 0 19 20" fill="none" xmlns="http://www.w3.org/2000/svg">
<path d="M15.7289 6.72085L9.5716 10.5692L3.41432 6.72085V5.18153L9.5716 9.02983L15.7289 5.18153M15.7289 3.64221H3.41432C2.56 3.64221 1.875 4.32721 1.875 5.18153V14.4175C1.875 14.8257 2.03718 15.2172 2.32586 15.5059C2.61453 15.7946 3.00607 15.9568 3.41432 15.9568H15.7289C16.1371 15.9568 16.5287 15.7946 16.8173 15.5059C17.106 15.2172 17.2682 14.8257 17.2682 14.4175V5.18153C17.2682 4.77328 17.106 4.38175 16.8173 4.09307C16.5287 3.80439 16.1371 3.64221 15.7289 3.64221Z" fill="#EDEDED"/>
</svg>
