<svg width="95" height="27" viewBox="0 0 95 27" fill="none" xmlns="http://www.w3.org/2000/svg">
<path d="M41.3105 22.5526C49.1527 22.5526 53.4426 16.0547 53.4426 10.4295C53.4426 10.2477 53.4426 10.0633 53.4348 9.88145C54.27 9.27684 54.9908 8.52829 55.5635 7.67089C54.7834 8.01488 53.9566 8.24159 53.1101 8.34367C54.0018 7.81069 54.6696 6.97209 54.9895 5.98375C54.1517 6.48005 53.2348 6.82845 52.2789 7.01369C51.6362 6.32926 50.7858 5.87584 49.8593 5.72367C48.9329 5.5715 47.9821 5.72908 47.1542 6.17199C46.3264 6.6149 45.6677 7.31843 45.2802 8.1736C44.8927 9.02877 44.798 9.98786 45.0108 10.9023C43.3155 10.8173 41.657 10.3769 40.1429 9.60966C38.6288 8.84243 37.2929 7.7655 36.2218 6.44872C35.678 7.38786 35.5121 8.49874 35.7577 9.55579C36.0032 10.6128 36.6419 11.5368 37.544 12.1401C36.868 12.1171 36.2069 11.9356 35.6139 11.6102V11.6686C35.6151 12.6524 35.9559 13.6057 36.5788 14.3672C37.2017 15.1287 38.0684 15.6519 39.0324 15.8481C38.6665 15.9489 38.2885 15.9992 37.9089 15.9975C37.6414 15.9983 37.3743 15.9735 37.1115 15.9235C37.3839 16.7704 37.9145 17.5108 38.6288 18.0411C39.3431 18.5715 40.2054 18.8651 41.0949 18.8808C39.5838 20.0677 37.7172 20.7114 35.7958 20.7083C35.4572 20.7097 35.1189 20.6902 34.7827 20.6498C36.7329 21.8931 38.9977 22.5533 41.3105 22.5526Z" fill="#EDEDED"/>
<g clip-path="url(#clip0_1227_2)">
<path d="M7.98873 15.0484H10.5142L11.5244 10.8153H7.98873V8.69873C7.98873 7.6087 7.98873 6.58216 10.0091 6.58216H11.5244V3.02633C11.195 2.98083 9.95151 2.87817 8.63828 2.87817C5.89564 2.87817 3.94802 4.63175 3.94802 7.8521V10.8153H0.91748V15.0484H3.94802V24.0438H7.98873V15.0484Z" fill="#EDEDED"/>
</g>
<path d="M83.528 4.8794C84.2577 4.8766 84.9875 4.88394 85.717 4.9014L85.911 4.9084C86.135 4.9164 86.356 4.9264 86.623 4.9384C87.687 4.9884 88.413 5.1564 89.05 5.4034C89.71 5.6574 90.266 6.0014 90.822 6.5574C91.3304 7.05701 91.7238 7.66135 91.975 8.3284C92.222 8.9654 92.39 9.6924 92.44 10.7564C92.452 11.0224 92.462 11.2444 92.47 11.4684L92.476 11.6624C92.4938 12.3916 92.5014 13.121 92.499 13.8504L92.5 14.5964V15.9064C92.5025 16.6361 92.4948 17.3659 92.477 18.0954L92.471 18.2894C92.463 18.5134 92.453 18.7344 92.441 19.0014C92.391 20.0654 92.221 20.7914 91.975 21.4284C91.7246 22.0962 91.3311 22.701 90.822 23.2004C90.322 23.7087 89.7173 24.1022 89.05 24.3534C88.413 24.6004 87.687 24.7684 86.623 24.8184C86.356 24.8304 86.135 24.8404 85.911 24.8484L85.717 24.8544C84.9875 24.8722 84.2577 24.8798 83.528 24.8774L82.782 24.8784H81.473C80.7433 24.8809 80.0135 24.8732 79.284 24.8554L79.09 24.8494C78.8526 24.8408 78.6153 24.8308 78.378 24.8194C77.314 24.7694 76.588 24.5994 75.95 24.3534C75.2827 24.1027 74.6782 23.7092 74.179 23.2004C73.67 22.7007 73.2762 22.096 73.025 21.4284C72.778 20.7914 72.61 20.0654 72.56 19.0014C72.5489 18.7641 72.5389 18.5268 72.53 18.2894L72.525 18.0954C72.5066 17.3659 72.4982 16.6362 72.5 15.9064V13.8504C72.4972 13.121 72.5045 12.3916 72.522 11.6624L72.529 11.4684C72.537 11.2444 72.547 11.0224 72.559 10.7564C72.609 9.6914 72.777 8.9664 73.024 8.3284C73.2754 7.66102 73.67 7.05685 74.18 6.5584C74.6789 6.04916 75.283 5.65498 75.95 5.4034C76.588 5.1564 77.313 4.9884 78.378 4.9384L79.09 4.9084L79.284 4.9034C80.0132 4.88498 80.7426 4.87664 81.472 4.8784L83.528 4.8794ZM82.5 9.8794C81.8375 9.87003 81.1798 9.99243 80.565 10.2395C79.9502 10.4865 79.3906 10.8533 78.9188 11.3185C78.447 11.7836 78.0724 12.3379 77.8167 12.9492C77.561 13.5604 77.4293 14.2163 77.4293 14.8789C77.4293 15.5415 77.561 16.1974 77.8167 16.8086C78.0724 17.4199 78.447 17.9742 78.9188 18.4394C79.3906 18.9045 79.9502 19.2713 80.565 19.5183C81.1798 19.7654 81.8375 19.8878 82.5 19.8784C83.8261 19.8784 85.0978 19.3516 86.0355 18.4139C86.9732 17.4763 87.5 16.2045 87.5 14.8784C87.5 13.5523 86.9732 12.2806 86.0355 11.3429C85.0978 10.4052 83.8261 9.8794 82.5 9.8794ZM82.5 11.8794C82.8985 11.8721 83.2945 11.9442 83.6648 12.0916C84.0351 12.239 84.3723 12.4587 84.6568 12.7379C84.9412 13.0172 85.1672 13.3502 85.3214 13.7177C85.4757 14.0853 85.5552 14.4798 85.5553 14.8784C85.5553 15.277 85.476 15.6716 85.3218 16.0391C85.1677 16.4067 84.9418 16.7398 84.6575 17.0191C84.3731 17.2984 84.036 17.5183 83.6657 17.6658C83.2955 17.8133 82.8995 17.8856 82.501 17.8784C81.7053 17.8784 80.9423 17.5623 80.3797 16.9997C79.8171 16.4371 79.501 15.6741 79.501 14.8784C79.501 14.0828 79.8171 13.3197 80.3797 12.7571C80.9423 12.1945 81.7053 11.8784 82.501 11.8784L82.5 11.8794ZM87.75 8.3794C87.4274 8.39232 87.1223 8.52955 86.8986 8.76238C86.6749 8.9952 86.55 9.30554 86.55 9.6284C86.55 9.95127 86.6749 10.2616 86.8986 10.4944C87.1223 10.7273 87.4274 10.8645 87.75 10.8774C88.0815 10.8774 88.3995 10.7457 88.6339 10.5113C88.8683 10.2769 89 9.95892 89 9.6274C89 9.29588 88.8683 8.97794 88.6339 8.74352C88.3995 8.5091 88.0815 8.3774 87.75 8.3774V8.3794Z" fill="#EDEDED"/>
<defs>
<clipPath id="clip0_1227_2">
<rect width="22.6728" height="25.3988" fill="white" transform="translate(0.5 0.761719)"/>
</clipPath>
</defs>
</svg>
